<?xml version="1.0" encoding="UTF-8" standalone="no"?>
<svg
   xmlns:dc="http://purl.org/dc/elements/1.1/"
   xmlns:cc="http://creativecommons.org/ns#"
   xmlns:rdf="http://www.w3.org/1999/02/22-rdf-syntax-ns#"
   xmlns:svg="http://www.w3.org/2000/svg"
   xmlns="http://www.w3.org/2000/svg"
   xmlns:sodipodi="http://sodipodi.sourceforge.net/DTD/sodipodi-0.dtd"
   xmlns:inkscape="http://www.inkscape.org/namespaces/inkscape"
   sodipodi:docname="logo.svg"
   width="39.768166mm"
   height="14.356463mm"
   viewBox="0 0 39.768162 14.356465"
   version="1.1"
   id="svg2148"
   inkscape:version="1.0 (4035a4fb49, 2020-05-01)">
  <defs
     id="defs2142" />
  <sodipodi:namedview
     id="base"
     pagecolor="#714650"
     bordercolor="#666666"
     borderopacity="1.0"
     inkscape:pageopacity="0"
     inkscape:pageshadow="2"
     inkscape:zoom="0.98994949"
     inkscape:cx="188.28219"
     inkscape:cy="220.69176"
     inkscape:document-units="mm"
     inkscape:current-layer="layer1"
     inkscape:document-rotation="0"
     showgrid="false"
     inkscape:pagecheckerboard="false"
     fit-margin-top="0"
     fit-margin-left="0"
     fit-margin-right="0"
     fit-margin-bottom="0"
     inkscape:window-width="1920"
     inkscape:window-height="1013"
     inkscape:window-x="-9"
     inkscape:window-y="-9"
     inkscape:window-maximized="1" />
  <metadata
     id="metadata2145">
    <rdf:RDF>
      <cc:Work
         rdf:about="">
        <dc:format>image/svg+xml</dc:format>
        <dc:type
           rdf:resource="http://purl.org/dc/dcmitype/StillImage" />
        <dc:title></dc:title>
      </cc:Work>
    </rdf:RDF>
  </metadata>
  <g
     inkscape:label="Layer 1"
     inkscape:groupmode="layer"
     id="layer1"
     transform="translate(83.651631,-78.398839)">
    <g
       id="layer1-1"
       transform="matrix(1.4356463,0,0,1.4356463,-170.3952,-56.846613)"
       style="fill:#000000">
      <g
         transform="matrix(0.31549463,0,0,0.31549463,49.706146,65.27535)"
         aria-label="&lt; &gt;"
         style="font-style:normal;font-weight:normal;font-size:10.5833px;line-height:13.2292px;font-family:sans-serif;letter-spacing:0px;word-spacing:0px;display:inline;opacity:1;fill:#000000;fill-opacity:1;stroke:none;stroke-width:0.264583"
         id="text4528-68">
        <path
           d="M 56.026008,120.28582 52.946781,123.3933 33.962927,107.54517 52.946781,91.697039 56.026008,94.832765 40.629876,107.48867 Z"
           style="font-style:normal;font-variant:normal;font-weight:normal;font-stretch:normal;font-size:57.8556px;line-height:13.2292px;font-family:Consolas;-inkscape-font-specification:Consolas;fill:#000000;stroke-width:0.264583"
           id="path10516-8" />
        <path
           d="m 99.728422,94.832765 3.050978,-3.135726 18.98385,15.848131 -18.98385,15.84813 -3.050978,-3.10748 15.396128,-12.68415 z"
           style="font-style:normal;font-variant:normal;font-weight:normal;font-stretch:normal;font-size:57.8556px;line-height:13.2292px;font-family:Consolas;-inkscape-font-specification:Consolas;fill:#000000;stroke-width:0.264583"
           id="path10518-30" />
      </g>
      <g
         style="display:inline;fill:#000000"
         transform="matrix(0.03157666,0,0,-0.03157666,66.766764,99.484491)"
         id="g7781-5-2">
        <path
           id="path7783-9-7"
           style="fill:#000000;fill-opacity:1;fill-rule:nonzero;stroke:none"
           d="m 0,0 -17.604,-0.009 -0.009,17.604 17.604,0.009 z" />
      </g>
      <g
         style="display:inline;fill:#000000"
         transform="matrix(0.03157666,0,0,-0.03157666,68.990257,99.483347)"
         id="g7785-1-6">
        <path
           id="path7787-5-6"
           style="fill:#000000;fill-opacity:1;fill-rule:nonzero;stroke:none"
           d="m 0,0 -17.604,-0.009 -0.009,17.604 17.604,0.009 z" />
      </g>
      <g
         style="display:inline;fill:#000000"
         transform="matrix(0.03157666,0,0,-0.03157666,71.213741,99.482196)"
         id="g7789-0-2">
        <path
           id="path7791-5-8"
           style="fill:#000000;fill-opacity:1;fill-rule:nonzero;stroke:none"
           d="m 0,0 -17.604,-0.009 -0.009,17.604 17.604,0.009 z" />
      </g>
      <g
         style="display:inline;fill:#000000"
         transform="matrix(0.03157666,0,0,-0.03157666,68.989679,98.371613)"
         id="g7793-8-9">
        <path
           id="path7795-3-0"
           style="fill:#000000;fill-opacity:1;fill-rule:nonzero;stroke:none"
           d="m 0,0 -17.604,-0.009 -0.009,17.604 17.604,0.009 z" />
      </g>
      <g
         style="display:inline;fill:#000000"
         transform="matrix(0.03157666,0,0,-0.03157666,68.99083,100.59512)"
         id="g7797-6-3">
        <path
           id="path7799-1-9"
           style="fill:#000000;fill-opacity:1;fill-rule:nonzero;stroke:none"
           d="m 0,0 -17.604,-0.009 -0.009,17.604 17.604,0.009 z" />
      </g>
      <g
         style="display:inline;fill:#000000"
         transform="matrix(0.03157666,0,0,-0.03157666,68.991396,101.70695)"
         id="g7801-0-1">
        <path
           id="path7803-4-1"
           style="fill:#000000;fill-opacity:1;fill-rule:nonzero;stroke:none"
           d="m 0,0 -17.604,-0.009 -0.009,17.604 17.604,0.009 z" />
      </g>
      <g
         style="display:inline;fill:#000000"
         transform="matrix(0.03157666,0,0,-0.03157666,68.989111,97.259854)"
         id="g7805-5-6">
        <path
           id="path7807-3-6"
           style="fill:#000000;fill-opacity:1;fill-rule:nonzero;stroke:none"
           d="m 0,0 -17.604,-0.009 -0.009,17.604 17.604,0.009 z" />
      </g>
      <g
         style="display:inline;fill:#000000"
         transform="matrix(0.03157666,0,0,-0.03157666,67.878507,99.483922)"
         id="g7809-0-0">
        <path
           id="path7811-9-0"
           style="fill:#000000;fill-opacity:1;fill-rule:nonzero;stroke:none"
           d="m 0,0 -17.604,-0.009 -0.009,17.604 17.604,0.009 z" />
      </g>
      <g
         style="display:inline;fill:#000000"
         transform="matrix(0.03157666,0,0,-0.03157666,67.877933,98.372186)"
         id="g7813-17-3">
        <path
           id="path7815-9-6"
           style="fill:#000000;fill-opacity:1;fill-rule:nonzero;stroke:none"
           d="m 0,0 -17.604,-0.009 -0.009,17.604 17.604,0.009 z" />
      </g>
      <g
         style="display:inline;fill:#000000"
         transform="matrix(0.03157666,0,0,-0.03157666,67.879072,100.59563)"
         id="g7817-7-6">
        <path
           id="path7819-9-6"
           style="fill:#000000;fill-opacity:1;fill-rule:nonzero;stroke:none"
           d="m 0,0 -17.604,-0.009 -0.009,17.604 17.604,0.009 z" />
      </g>
      <g
         style="display:inline;fill:#000000"
         transform="matrix(0.03157666,0,0,-0.03157666,81.776306,99.484491)"
         id="g7821-5-9">
        <path
           id="path7823-0-2"
           style="fill:#000000;fill-opacity:1;fill-rule:nonzero;stroke:none"
           d="M 0,0 17.604,-0.009 17.613,17.595 0.009,17.604 Z" />
      </g>
      <g
         style="display:inline;fill:#000000"
         transform="matrix(0.03157666,0,0,-0.03157666,79.552795,99.483347)"
         id="g7825-5-2">
        <path
           id="path7827-9-4"
           style="fill:#000000;fill-opacity:1;fill-rule:nonzero;stroke:none"
           d="M 0,0 17.604,-0.009 17.613,17.595 0.009,17.604 Z" />
      </g>
      <g
         style="display:inline;fill:#000000"
         transform="matrix(0.03157666,0,0,-0.03157666,79.55337,98.371613)"
         id="g7829-7-4">
        <path
           id="path7831-8-4"
           style="fill:#000000;fill-opacity:1;fill-rule:nonzero;stroke:none"
           d="M 0,0 17.604,-0.009 17.613,17.595 0.009,17.604 Z" />
      </g>
      <g
         style="display:inline;fill:#000000"
         transform="matrix(0.03157666,0,0,-0.03157666,79.552253,100.59512)"
         id="g7833-0-3">
        <path
           id="path7835-8-4"
           style="fill:#000000;fill-opacity:1;fill-rule:nonzero;stroke:none"
           d="M 0,0 17.604,-0.009 17.613,17.595 0.009,17.604 Z" />
      </g>
      <g
         style="display:inline;fill:#000000"
         transform="matrix(0.03157666,0,0,-0.03157666,79.551684,101.70695)"
         id="g7837-1-1">
        <path
           id="path7839-5-0"
           style="fill:#000000;fill-opacity:1;fill-rule:nonzero;stroke:none"
           d="M 0,0 17.604,-0.009 17.613,17.595 0.009,17.604 Z" />
      </g>
      <g
         style="display:inline;fill:#000000"
         transform="matrix(0.03157666,0,0,-0.03157666,79.553917,97.259854)"
         id="g7841-80-0">
        <path
           id="path7843-5-8"
           style="fill:#000000;fill-opacity:1;fill-rule:nonzero;stroke:none"
           d="M 0,0 17.604,-0.009 17.613,17.595 0.009,17.604 Z" />
      </g>
      <g
         style="display:inline;fill:#000000"
         transform="matrix(0.03157666,0,0,-0.03157666,80.664562,99.483922)"
         id="g7845-2-8">
        <path
           id="path7847-4-5"
           style="fill:#000000;fill-opacity:1;fill-rule:nonzero;stroke:none"
           d="M 0,0 17.604,-0.009 17.613,17.595 0.009,17.604 Z" />
      </g>
      <g
         style="display:inline;fill:#000000"
         transform="matrix(0.03157666,0,0,-0.03157666,80.665145,98.372186)"
         id="g7849-7-0">
        <path
           id="path7851-0-0"
           style="fill:#000000;fill-opacity:1;fill-rule:nonzero;stroke:none"
           d="M 0,0 17.604,-0.009 17.613,17.595 0.009,17.604 Z" />
      </g>
      <g
         style="display:inline;fill:#000000"
         transform="matrix(0.03157666,0,0,-0.03157666,80.663988,100.59563)"
         id="g7853-5-6">
        <path
           id="path7855-3-8"
           style="fill:#000000;fill-opacity:1;fill-rule:nonzero;stroke:none"
           d="M 0,0 17.604,-0.009 17.613,17.595 0.009,17.604 Z" />
      </g>
      <g
         style="display:inline;fill:#000000"
         transform="matrix(0.03157666,0,0,-0.03157666,70.101998,99.48278)"
         id="g7857-8-6">
        <path
           id="path7859-5-2"
           style="fill:#000000;fill-opacity:1;fill-rule:nonzero;stroke:none"
           d="m 0,0 -17.604,-0.009 -0.009,17.604 17.604,0.009 z" />
      </g>
      <g
         style="display:inline;fill:#000000"
         transform="matrix(0.03157666,0,0,-0.03157666,70.101423,98.371032)"
         id="g7861-0-3">
        <path
           id="path7863-8-1"
           style="fill:#000000;fill-opacity:1;fill-rule:nonzero;stroke:none"
           d="m 0,0 -17.604,-0.009 -0.009,17.604 17.604,0.009 z" />
      </g>
      <g
         style="display:inline;fill:#000000"
         transform="matrix(0.03157666,0,0,-0.03157666,70.102565,100.59449)"
         id="g7865-63-5">
        <path
           id="path7867-8-0"
           style="fill:#000000;fill-opacity:1;fill-rule:nonzero;stroke:none"
           d="m 0,0 -17.604,-0.009 -0.009,17.604 17.604,0.009 z" />
      </g>
      <g
         style="display:inline;fill:#000000"
         transform="matrix(0.03157666,0,0,-0.03157666,71.213175,98.37047)"
         id="g7869-2-10">
        <path
           id="path7871-5-3"
           style="fill:#000000;fill-opacity:1;fill-rule:nonzero;stroke:none"
           d="m 0,0 -17.604,-0.009 -0.009,17.604 17.604,0.009 z" />
      </g>
      <g
         style="display:inline;fill:#000000"
         transform="matrix(0.03157666,0,0,-0.03157666,71.214317,100.59392)"
         id="g7873-24-9">
        <path
           id="path7875-0-5"
           style="fill:#000000;fill-opacity:1;fill-rule:nonzero;stroke:none"
           d="m 0,0 -17.604,-0.009 -0.009,17.604 17.604,0.009 z" />
      </g>
      <path
         id="path7877-9-0"
         style="display:inline;fill:#000000;fill-opacity:1;fill-rule:nonzero;stroke:none;stroke-width:0.0315767"
         d="m 72.881221,99.483205 h 0.555873 v -0.555871 h -0.555873 z" />
      <path
         id="path7879-4-5"
         style="display:inline;fill:#000000;fill-opacity:1;fill-rule:nonzero;stroke:none;stroke-width:0.0315767"
         d="m 72.881221,98.371452 h 0.555873 v -0.55586 h -0.555873 z" />
      <path
         id="path7881-2-3"
         style="display:inline;fill:#000000;fill-opacity:1;fill-rule:nonzero;stroke:none;stroke-width:0.0315767"
         d="m 72.881221,100.59498 h 0.555873 v -0.5559 h -0.555873 z" />
      <path
         id="path7883-1-2"
         style="display:inline;fill:#000000;fill-opacity:1;fill-rule:nonzero;stroke:none;stroke-width:0.0315767"
         d="m 72.881221,101.70673 h 0.555873 v -0.55588 h -0.555873 z" />
      <path
         id="path7885-2-66"
         style="display:inline;fill:#000000;fill-opacity:1;fill-rule:nonzero;stroke:none;stroke-width:0.0315767"
         d="m 72.881221,97.259713 h 0.555873 v -0.555881 h -0.555873 z" />
      <path
         id="path7887-6-7"
         style="display:inline;fill:#000000;fill-opacity:1;fill-rule:nonzero;stroke:none;stroke-width:0.0315767"
         d="m 78.440955,99.483205 h 0.555862 v -0.555871 h -0.555862 z" />
      <path
         id="path7889-06-9"
         style="display:inline;fill:#000000;fill-opacity:1;fill-rule:nonzero;stroke:none;stroke-width:0.0315767"
         d="m 78.440955,98.371452 h 0.555862 v -0.55586 h -0.555862 z" />
      <path
         id="path7891-5-70"
         style="display:inline;fill:#000000;fill-opacity:1;fill-rule:nonzero;stroke:none;stroke-width:0.0315767"
         d="m 78.440955,100.59498 h 0.555862 v -0.5559 h -0.555862 z" />
      <path
         id="path7893-9-1"
         style="display:inline;fill:#000000;fill-opacity:1;fill-rule:nonzero;stroke:none;stroke-width:0.0315767"
         d="m 78.440955,101.70673 h 0.555862 v -0.55588 h -0.555862 z" />
      <path
         id="path7895-7-5"
         style="display:inline;fill:#000000;fill-opacity:1;fill-rule:nonzero;stroke:none;stroke-width:0.0315767"
         d="m 78.440955,97.259713 h 0.555862 v -0.555881 h -0.555862 z" />
      <path
         id="path7897-4-1"
         style="display:inline;fill:#000000;fill-opacity:1;fill-rule:nonzero;stroke:none;stroke-width:0.0315767"
         d="m 73.992994,99.483205 h 0.555873 v -0.555871 h -0.555873 z" />
      <path
         id="path7899-0-86"
         style="display:inline;fill:#000000;fill-opacity:1;fill-rule:nonzero;stroke:none;stroke-width:0.0315767"
         d="m 73.992994,98.371452 h 0.555873 v -0.55586 h -0.555873 z" />
      <path
         id="path7901-6-96"
         style="display:inline;fill:#000000;fill-opacity:1;fill-rule:nonzero;stroke:none;stroke-width:0.0315767"
         d="m 73.992994,100.59498 h 0.555873 v -0.5559 h -0.555873 z" />
      <g
         style="display:inline;fill:#000000"
         transform="matrix(0.03157666,0,0,-0.03157666,71.769608,99.481917)"
         id="g7903-4-9">
        <path
           id="path7905-87-98"
           style="fill:#000000;fill-opacity:1;fill-rule:nonzero;stroke:none"
           d="M 0,0 17.604,0.009 17.595,17.613 -0.009,17.604 Z" />
      </g>
      <g
         style="display:inline;fill:#000000"
         transform="matrix(0.03157666,0,0,-0.03157666,71.770757,101.70534)"
         id="g7907-9-3">
        <path
           id="path7909-3-5"
           style="fill:#000000;fill-opacity:1;fill-rule:nonzero;stroke:none"
           d="M 0,0 17.604,0.009 17.595,17.613 -0.009,17.604 Z" />
      </g>
      <g
         style="display:inline;fill:#000000"
         transform="matrix(0.03157666,0,0,-0.03157666,71.771339,102.81711)"
         id="g7911-9-1">
        <path
           id="path7913-8-9"
           style="fill:#000000;fill-opacity:1;fill-rule:nonzero;stroke:none"
           d="M 0,0 17.604,0.009 17.595,17.613 -0.009,17.604 Z" />
      </g>
      <g
         style="display:inline;fill:#000000"
         transform="matrix(0.03157666,0,0,-0.03157666,71.769034,98.370185)"
         id="g7915-4-1">
        <path
           id="path7917-0-2"
           style="fill:#000000;fill-opacity:1;fill-rule:nonzero;stroke:none"
           d="M 0,0 17.604,0.009 17.595,17.613 -0.009,17.604 Z" />
      </g>
      <g
         style="display:inline;fill:#000000"
         transform="matrix(0.03157666,0,0,-0.03157666,71.767892,96.146689)"
         id="g7919-3-0">
        <path
           id="path7921-1-8"
           style="fill:#000000;fill-opacity:1;fill-rule:nonzero;stroke:none"
           d="M 0,0 17.604,0.009 17.595,17.613 -0.009,17.604 Z" />
      </g>
      <g
         style="display:inline;fill:#000000"
         transform="matrix(0.03157666,0,0,-0.03157666,71.76847,97.258437)"
         id="g7923-1-3">
        <path
           id="path7925-1-7"
           style="fill:#000000;fill-opacity:1;fill-rule:nonzero;stroke:none"
           d="M 0,0 17.604,0.009 17.595,17.613 -0.009,17.604 Z" />
      </g>
      <g
         style="display:inline;fill:#000000"
         transform="matrix(0.03157666,0,0,-0.03157666,71.770176,100.59362)"
         id="g7927-2-3">
        <path
           id="path7929-8-1"
           style="fill:#000000;fill-opacity:1;fill-rule:nonzero;stroke:none"
           d="M 0,0 17.604,0.009 17.595,17.613 -0.009,17.604 Z" />
      </g>
      <path
         id="path7931-5-0"
         style="display:inline;fill:#000000;fill-opacity:1;fill-rule:nonzero;stroke:none;stroke-width:0.0315767"
         d="m 75.104669,99.483205 h 0.555915 v -0.555871 h -0.555915 z" />
      <path
         id="path7933-0-3"
         style="display:inline;fill:#000000;fill-opacity:1;fill-rule:nonzero;stroke:none;stroke-width:0.0315767"
         d="m 75.104669,101.70673 h 0.555915 v -0.55588 h -0.555915 z" />
      <path
         id="path7935-31-0"
         style="display:inline;fill:#000000;fill-opacity:1;fill-rule:nonzero;stroke:none;stroke-width:0.0315767"
         d="m 75.104669,98.371452 h 0.555915 v -0.55586 h -0.555915 z" />
      <path
         id="path7937-2-4"
         style="display:inline;fill:#000000;fill-opacity:1;fill-rule:nonzero;stroke:none;stroke-width:0.0315767"
         d="m 75.104669,97.259713 h 0.555915 v -0.555881 h -0.555915 z" />
      <path
         id="path7939-1-8"
         style="display:inline;fill:#000000;fill-opacity:1;fill-rule:nonzero;stroke:none;stroke-width:0.0315767"
         d="m 75.104669,100.59498 h 0.555915 v -0.5559 h -0.555915 z" />
      <path
         id="path7941-0-7"
         style="display:inline;fill:#000000;fill-opacity:1;fill-rule:nonzero;stroke:none;stroke-width:0.0315767"
         d="m 76.216449,99.483205 h 0.555853 v -0.555871 h -0.555853 z" />
      <path
         id="path7943-1-0"
         style="display:inline;fill:#000000;fill-opacity:1;fill-rule:nonzero;stroke:none;stroke-width:0.0315767"
         d="m 76.216449,101.70673 h 0.555853 v -0.55588 h -0.555853 z" />
      <path
         id="path7945-43-9"
         style="display:inline;fill:#000000;fill-opacity:1;fill-rule:nonzero;stroke:none;stroke-width:0.0315767"
         d="m 76.216449,102.81847 h 0.555853 v -0.55594 h -0.555853 z" />
      <path
         id="path7947-9-3"
         style="display:inline;fill:#000000;fill-opacity:1;fill-rule:nonzero;stroke:none;stroke-width:0.0315767"
         d="m 76.216449,98.371452 h 0.555853 v -0.55586 h -0.555853 z" />
      <path
         id="path7949-6-7"
         style="display:inline;fill:#000000;fill-opacity:1;fill-rule:nonzero;stroke:none;stroke-width:0.0315767"
         d="m 76.216449,96.147991 h 0.555853 v -0.555883 h -0.555853 z" />
      <path
         id="path7951-81-9"
         style="display:inline;fill:#000000;fill-opacity:1;fill-rule:nonzero;stroke:none;stroke-width:0.0315767"
         d="m 76.216449,97.259713 h 0.555853 v -0.555881 h -0.555853 z" />
      <path
         id="path7953-9-0"
         style="display:inline;fill:#000000;fill-opacity:1;fill-rule:nonzero;stroke:none;stroke-width:0.0315767"
         d="m 76.216449,100.59498 h 0.555853 v -0.5559 h -0.555853 z" />
      <path
         id="path7955-1-8"
         style="display:inline;fill:#000000;fill-opacity:1;fill-rule:nonzero;stroke:none;stroke-width:0.0315767"
         d="m 77.328217,99.483205 h 0.555857 v -0.555871 h -0.555857 z" />
      <path
         id="path7957-7-1"
         style="display:inline;fill:#000000;fill-opacity:1;fill-rule:nonzero;stroke:none;stroke-width:0.0315767"
         d="m 77.328217,101.70673 h 0.555857 v -0.55588 h -0.555857 z" />
      <path
         id="path7959-3-6"
         style="display:inline;fill:#000000;fill-opacity:1;fill-rule:nonzero;stroke:none;stroke-width:0.0315767"
         d="m 77.328217,103.93018 h 0.555857 v -0.55576 h -0.555857 z" />
      <path
         id="path7961-5-3"
         style="display:inline;fill:#000000;fill-opacity:1;fill-rule:nonzero;stroke:none;stroke-width:0.0315767"
         d="m 77.328217,102.81847 h 0.555857 v -0.55594 h -0.555857 z" />
      <path
         id="path7963-3-0"
         style="display:inline;fill:#000000;fill-opacity:1;fill-rule:nonzero;stroke:none;stroke-width:0.0315767"
         d="m 77.328217,98.371452 h 0.555857 v -0.55586 h -0.555857 z" />
      <path
         id="path7965-4-4"
         style="display:inline;fill:#000000;fill-opacity:1;fill-rule:nonzero;stroke:none;stroke-width:0.0315767"
         d="m 77.328217,96.147991 h 0.555857 v -0.555883 h -0.555857 z" />
      <path
         id="path7967-96-4"
         style="display:inline;fill:#000000;fill-opacity:1;fill-rule:nonzero;stroke:none;stroke-width:0.0315767"
         d="m 77.328217,97.259713 h 0.555857 v -0.555881 h -0.555857 z" />
      <path
         id="path7969-9-37"
         style="display:inline;fill:#000000;fill-opacity:1;fill-rule:nonzero;stroke:none;stroke-width:0.0315767"
         d="m 77.328217,95.036239 h 0.555857 v -0.55588 h -0.555857 z" />
      <path
         id="path7971-7-5"
         style="display:inline;fill:#000000;fill-opacity:1;fill-rule:nonzero;stroke:none;stroke-width:0.0315767"
         d="m 77.328217,100.59498 h 0.555857 v -0.5559 h -0.555857 z" />
    </g>
  </g>
</svg>
